Coordinates
version=1
nRows=8
nColumns=46
inDegrees=yes

Units are S.I. units (second, meters, Newtons, ...)
Angles are in degrees.

endheader
time	pelvis_tilt	pelvis_list	pelvis_rotation	pelvis_tx	pelvis_ty	pelvis_tz	bb_angle	bb_tx	bb_ty	bb_tz	hip_flexion_r	hip_adduction_r	hip_rotation_r	knee_angle_r	knee_angle_r_beta	ankle_angle_r	subtalar_angle_r	mtp_angle_r	crank_angle_r	hip_flexion_l	hip_adduction_l	hip_rotation_l	knee_angle_l	knee_angle_l_beta	ankle_angle_l	subtalar_angle_l	mtp_angle_l	crank_angle_l	lumbar_extension	lumbar_bending	lumbar_rotation	arm_flex_r	arm_add_r	arm_rot_r	elbow_flex_r	pro_sup_r	wrist_flex_r	wrist_dev_r	arm_flex_l	arm_add_l	arm_rot_l	elbow_flex_l	pro_sup_l	wrist_flex_l	wrist_dev_l
      5.00000000	    -15.00070604	     -1.02589927	      3.10303979	      0.07891722	      1.09947153	     -0.27500241	      0.00000000	      0.50000000	      0.00000000	      0.25000000	     57.56625657	     -1.45123566	      4.05375553	     50.97061316	      0.88960502	     -1.03880301	    -22.20158911	      0.00000000	      0.00000000	     71.98256626	     -0.18027922	      8.76901372	    101.56253827	      1.77260069	    -20.39173356	    -12.36854613	      0.00000000	      0.00000000	    -65.87340255	     -1.74729183	     -5.44379951	     89.47061702	    -21.62640889	     28.63251923	     66.32241844	     34.76922826	      0.00000000	      0.00000000	     89.56894972	    -29.31999580	     32.13937718	     77.12621372	     38.11382482	      0.00000000	      0.00000000
      5.00500000	    -15.33275261	     -0.51895614	      3.49367943	      0.07919494	      1.09968018	     -0.27463931	      0.00000000	      0.50000000	      0.00000000	      0.25000000	     56.17463010	     -2.16770885	      4.15491940	     48.45410636	      0.84568369	     -1.80648656	    -21.50975097	      0.00000000	      0.00000000	     73.49960709	      0.41916808	      8.48083500	    103.17924033	      1.80081746	    -19.61603182	    -12.44427674	      0.00000000	      0.00000000	    -65.63332679	     -2.00305807	     -6.17676574	     89.42746488	    -21.75698950	     28.58115789	     66.22378186	     34.75090983	      0.00000000	      0.00000000	     89.57792757	    -29.09689031	     32.17525163	     77.19518337	     38.09800886	      0.00000000	      0.00000000
      5.01000000	    -15.43210048	     -0.14239549	      3.97011290	      0.07955936	      1.10041277	     -0.27450260	      0.00000000	      0.50000000	      0.00000000	      0.25000000	     54.47263572	     -2.86833850	      4.05725872	     45.86850549	      0.80055644	     -3.34363264	    -21.17279660	      0.00000000	      0.00000000	     74.79164211	      0.93080556	      8.31712720	    104.74469477	      1.82813980	    -18.37235831	    -11.71842236	      0.00000000	      0.00000000	    -65.62936775	     -2.08686085	     -6.70652380	     89.43138535	    -21.90775951	     28.74478318	     65.67800292	     34.67703430	      0.00000000	      0.00000000	     89.59565412	    -28.74748402	     32.18469812	     77.36693693	     38.00524547	      0.00000000	      0.00000000
      5.01500000	    -15.65832828	      0.24987065	      4.36592465	      0.07980921	      1.10078473	     -0.27409753	      0.00000000	      0.50000000	      0.00000000	      0.25000000	     52.95861050	     -3.50280164	      4.00789542	     43.38415186	      0.75719629	     -4.54892292	    -20.70895291	      0.00000000	      0.00000000	     76.27315713	      1.35699982	      8.10670896	    106.25896016	      1.85456871	    -17.23189615	    -11.12621230	      0.00000000	      0.00000000	    -65.45996703	     -2.21836810	     -7.30022760	     89.41160545	    -21.93280545	     28.91691877	     65.23576172	     34.63484089	      0.00000000	      0.00000000	     89.60135102	    -28.53005822	     32.17672968	     77.35692666	     37.80413443	      0.00000000	      0.00000000
      5.02000000	    -16.02606958	      0.75787684	      4.76435752	      0.07993134	      1.10085473	     -0.27366151	      0.00000000	      0.50000000	      0.00000000	      0.25000000	     51.70867128	     -4.26303261	      3.98733537	     41.16631363	      0.71848771	     -5.41322656	    -19.77698456	      0.00000000	      0.00000000	     77.94207640	      1.80704282	      7.69866520	    107.66522465	      1.87911266	    -16.50824434	    -11.11153063	      0.00000000	      0.00000000	    -65.19738498	     -2.47499202	     -8.01552869	     89.34928840	    -22.09393996	     28.85715595	     65.16521858	     34.62691410	      0.00000000	      0.00000000	     89.61018249	    -28.29370051	     32.23171342	     77.40706526	     37.78148671	      0.00000000	      0.00000000
      5.02500000	    -16.32544123	      1.26516226	      5.16002648	      0.07992919	      1.10109931	     -0.27329375	      0.00000000	      0.50000000	      0.00000000	      0.25000000	     50.42772921	     -5.04545003	      3.87669098	     39.01554901	      0.68094979	     -6.43140497	    -18.80759447	      0.00000000	      0.00000000	     79.54330077	      2.17997178	      7.24303308	    108.95398477	      1.90160577	    -15.76044717	    -10.92902278	      0.00000000	      0.00000000	    -65.02239203	     -2.65374619	     -8.65151007	     89.34111368	    -22.24652671	     28.85343706	     65.01863803	     34.60794537	      0.00000000	      0.00000000	     89.62645527	    -28.06159227	     32.28283561	     77.46045690	     37.75561495	      0.00000000	      0.00000000
      5.03000000	    -16.57807454	      1.73268206	      5.57939878	      0.07996992	      1.10148296	     -0.27299526	      0.00000000	      0.50000000	      0.00000000	      0.25000000	     49.12398001	     -5.83951332	      3.65971779	     36.95780963	      0.64503546	     -7.54786427	    -17.74350702	      0.00000000	      0.00000000	     81.09255265	      2.57913455	      6.84125781	    110.13030587	      1.92213644	    -14.96103975	    -10.57500627	      0.00000000	      0.00000000	    -64.88547663	     -2.77843885	     -9.17944548	     89.29266234	    -22.37558625	     28.89684928	     64.81031205	     34.58469503	      0.00000000	      0.00000000	     89.63218473	    -27.83109499	     32.32058117	     77.52953987	     37.72424742	      0.00000000	      0.00000000
      5.03500000	    -16.55573272	      2.07308448	      6.09635736	      0.07986864	      1.10209353	     -0.27283084	      0.00000000	      0.50000000	      0.00000000	      0.25000000	     47.58555137	     -6.62810433	      3.08216605	     35.06631023	      0.61202257	     -8.54877398	    -16.61475592	      0.00000000	      0.00000000	     82.39399914	      2.97377832	      6.68440446	    111.27513264	      1.94211744	    -13.55507834	     -9.16915814	      0.00000000	      0.00000000	    -64.97983479	     -2.69939434	     -9.58370622	     89.31645379	    -22.47622884	     29.18875209	     64.17036182	     34.54747239	      0.00000000	      0.00000000	     89.63854504	    -27.52113217	     32.29795217	     77.55740830	     37.51014325	      0.00000000	      0.00000000
